<?xml version="1.0" standalone="no"?>
<!DOCTYPE svg PUBLIC "-//W3C//DTD SVG 20010904//EN"
 "http://www.w3.org/TR/2001/REC-SVG-20010904/DTD/svg10.dtd">
<svg version="1.0" xmlns="http://www.w3.org/2000/svg"
 width="800px" height="800px"  viewBox="0 0 623.000000 621.000000"
 preserveAspectRatio="xMidYMid meet">

<g transform="translate(0.000000,621.000000) scale(0.100000,-0.100000)"
fill="#000000" stroke="none">
<path d="M1840 5804 c-14 -3 -61 -23 -105 -44 -84 -41 -175 -121 -282 -245
-44 -52 -213 -297 -213 -309 0 -2 -22 -42 -48 -88 -26 -46 -79 -144 -116 -218
-54 -106 -78 -144 -115 -175 -72 -62 -287 -283 -345 -355 -103 -126 -242 -342
-319 -496 -61 -120 -82 -171 -133 -318 l-34 -100 0 -567 0 -567 45 -132 c82
-238 229 -505 356 -645 131 -145 256 -259 371 -338 504 -348 1205 -517 2148
-517 943 0 1644 169 2148 517 115 79 240 193 371 338 135 148 281 419 367 680
60 184 78 264 99 443 47 397 -33 810 -232 1206 -77 154 -215 369 -320 498 -61
76 -324 342 -361 366 -14 9 -46 61 -76 121 -124 253 -284 518 -385 641 -70 85
-191 200 -247 236 -109 70 -247 89 -368 49 -71 -23 -191 -94 -288 -172 -88
-70 -286 -268 -380 -381 -39 -46 -81 -87 -95 -93 -32 -12 -434 -12 -466 0 -14
6 -56 47 -95 93 -94 112 -291 311 -378 380 -96 77 -207 143 -279 169 -59 21
-176 32 -225 23z m175 -357 c22 -11 68 -42 102 -69 84 -66 328 -321 426 -443
43 -55 86 -106 95 -112 12 -10 110 -13 412 -13 302 0 400 3 412 13 9 6 52 57
96 112 98 124 342 377 425 443 105 84 167 108 231 91 110 -30 332 -341 544
-765 60 -120 80 -149 129 -194 117 -107 317 -317 379 -398 225 -291 352 -561
425 -902 20 -92 23 -134 23 -330 -1 -218 -2 -229 -33 -355 -68 -279 -142 -459
-268 -646 -82 -123 -151 -200 -277 -305 -230 -193 -505 -327 -876 -425 -63
-17 -137 -35 -165 -39 -27 -5 -104 -19 -170 -30 -178 -32 -261 -39 -583 -50
-198 -7 -386 -7 -585 0 -321 11 -404 18 -582 50 -66 11 -142 25 -170 30 -169
29 -458 122 -622 200 -219 104 -404 232 -540 372 -165 169 -304 421 -386 698
-63 212 -71 269 -71 505 0 190 3 234 23 325 70 330 183 577 399 870 73 98 257
296 365 390 83 73 89 80 163 225 170 332 325 575 440 692 95 97 142 109 239
60z"/>
<path d="M1821 4952 c-16 -30 -131 -322 -131 -332 0 -16 36 -12 209 22 91 18
165 38 168 45 4 10 -149 224 -192 266 -21 22 -42 22 -54 -1z"/>
<path d="M4225 4954 c-42 -43 -196 -257 -192 -267 5 -12 308 -78 355 -77 12 0
22 6 22 13 -1 6 -31 86 -68 177 -69 170 -83 188 -117 154z"/>
<path d="M1990 3703 c-86 -29 -176 -106 -205 -175 -22 -55 -20 -172 6 -228 32
-72 65 -106 130 -139 53 -26 74 -31 136 -31 87 0 141 22 202 82 84 81 112 195
75 300 -25 71 -110 156 -179 181 -47 16 -132 22 -165 10z"/>
<path d="M3940 3692 c-64 -24 -150 -113 -174 -180 -22 -63 -19 -159 8 -213 23
-50 96 -123 145 -148 57 -30 185 -29 244 0 71 36 102 65 135 127 28 53 32 69
32 138 0 96 -19 141 -85 206 -81 81 -201 109 -305 70z"/>
<path d="M2749 2811 c-61 -61 -54 -120 26 -195 16 -16 59 -56 95 -89 l65 -61
0 -151 c0 -136 -2 -156 -25 -215 -32 -83 -95 -147 -171 -175 -67 -24 -246 -27
-357 -6 -68 13 -76 13 -107 -3 -40 -22 -60 -56 -51 -90 15 -60 80 -88 249
-107 87 -10 116 -10 202 5 158 27 248 77 336 188 l37 47 48 -58 c88 -104 174
-150 329 -177 86 -15 114 -15 202 -5 129 15 193 34 227 67 34 35 34 73 -1 108
-36 36 -63 41 -136 25 -34 -8 -116 -14 -182 -14 -194 0 -272 42 -337 180 -31
67 -32 76 -36 215 l-4 145 100 102 c123 125 132 138 132 186 0 32 -7 46 -39
78 l-39 39 -262 0 -262 0 -39 -39z"/>
<path d="M978 2664 c-13 -13 -9 -72 6 -87 10 -9 66 -17 187 -26 183 -13 329
-24 544 -41 72 -6 200 -14 285 -18 86 -5 161 -11 167 -15 7 -5 12 10 15 46 2
28 4 53 3 54 -1 3 -89 10 -405 33 -178 14 -367 28 -500 39 -242 20 -295 23
-302 15z"/>
<path d="M5000 2666 c-3 -2 -77 -9 -165 -16 -88 -6 -209 -16 -270 -21 -117
-10 -259 -21 -499 -38 -82 -6 -149 -12 -150 -13 -1 -2 0 -27 2 -55 3 -36 8
-51 15 -46 6 4 81 10 167 15 85 4 211 12 280 17 130 11 288 23 520 41 74 5
157 12 183 16 l48 6 -3 47 -3 46 -60 3 c-34 2 -63 1 -65 -2z"/>
<path d="M2090 2200 c-14 -4 -53 -8 -87 -9 -34 -1 -95 -5 -135 -11 -40 -5
-122 -14 -183 -20 -118 -12 -241 -25 -370 -40 -44 -5 -134 -14 -200 -20 -176
-17 -167 -13 -163 -63 l3 -42 60 -3 c33 -2 105 1 160 7 116 13 208 23 470 51
105 11 254 27 332 35 78 8 145 15 148 15 3 0 5 25 5 55 0 30 -3 55 -7 54 -5
-1 -19 -5 -33 -9z"/>
<path d="M3970 2156 l0 -55 58 -6 c31 -3 98 -10 147 -15 50 -6 173 -19 275
-30 102 -11 230 -24 285 -30 55 -6 143 -15 195 -21 52 -6 122 -9 155 -7 l60 3
3 42 c4 50 13 46 -163 63 -66 6 -156 15 -200 20 -131 15 -253 29 -370 40 -94
9 -237 26 -402 46 l-43 5 0 -55z"/>
</g>
</svg>
