<?xml version="1.0" standalone="no"?>
<!DOCTYPE svg PUBLIC "-//W3C//DTD SVG 20010904//EN"
 "http://www.w3.org/TR/2001/REC-SVG-20010904/DTD/svg10.dtd">
<svg version="1.0" xmlns="http://www.w3.org/2000/svg"
 width="800px" height="800px" viewBox="0 0 510.000000 593.000000"
 preserveAspectRatio="xMidYMid meet">

<g transform="translate(0.000000,593.000000) scale(0.100000,-0.100000)"
fill="#000000" stroke="none">
<path d="M2260 5916 c-20 -8 -58 -25 -85 -39 -28 -13 -104 -46 -170 -72 -222
-87 -378 -188 -540 -350 -121 -120 -194 -219 -260 -353 -85 -172 -135 -387
-135 -578 0 -104 26 -370 45 -463 l13 -64 -34 -47 c-105 -147 -123 -289 -59
-485 57 -173 158 -311 290 -394 37 -23 66 -50 70 -63 35 -114 155 -347 230
-443 54 -70 69 -143 68 -325 0 -137 -12 -183 -61 -250 -73 -100 -179 -158
-519 -286 -351 -132 -508 -215 -656 -346 -72 -64 -151 -164 -196 -249 -89
-166 -148 -486 -110 -600 70 -208 495 -389 1136 -484 l172 -25 1008 0 1008 0
175 25 c553 80 961 231 1094 406 58 77 67 136 45 309 -30 244 -120 435 -278
590 -145 143 -310 233 -684 374 -333 125 -440 184 -515 282 -53 68 -65 114
-65 254 -1 176 15 257 63 317 77 98 186 304 229 436 10 30 26 46 76 78 132 83
233 221 290 394 62 189 47 333 -50 475 l-23 35 24 105 c53 231 73 461 55 637
-40 399 -210 655 -519 783 -64 27 -93 47 -173 124 -115 110 -221 175 -366 226
-59 21 -132 47 -161 59 -46 19 -72 21 -225 20 -115 0 -184 -5 -207 -13z m333
-141 c161 -42 291 -161 348 -321 30 -82 30 -234 0 -318 -121 -341 -549 -449
-807 -204 -112 105 -157 210 -156 363 0 154 45 258 156 363 120 113 298 159
459 117z m-649 -869 c53 -71 146 -151 221 -190 l50 -25 -397 -1 -398 0 0 140
0 140 239 0 239 0 46 -64z m1576 -76 l0 -140 -396 0 -397 0 52 28 c80 42 159
111 213 184 l51 68 238 0 239 0 0 -140z m-153 -347 c83 -126 143 -282 209
-542 24 -96 45 -176 47 -177 1 -2 13 18 27 43 l24 45 23 -28 c13 -16 31 -53
39 -83 20 -67 14 -132 -22 -233 -54 -152 -131 -243 -247 -293 -63 -28 -63 -28
-87 -94 -65 -186 -166 -380 -242 -466 -57 -64 -77 -155 -84 -370 -5 -137 -3
-171 14 -233 l19 -72 -31 -19 c-17 -10 -149 -80 -293 -155 l-263 -137 -317
147 c-175 80 -321 149 -325 153 -3 3 3 40 14 81 17 65 19 96 14 235 -6 202
-29 311 -74 358 -73 76 -185 289 -252 478 l-24 66 -65 29 c-128 55 -216 175
-263 357 -20 76 -21 92 -10 143 10 50 66 155 82 154 3 -1 26 -32 53 -70 26
-39 54 -70 61 -70 24 0 29 58 15 172 -15 130 -15 132 94 271 67 85 119 165
200 308 l26 47 803 1 803 1 32 -47z m-81 -2760 c-3 -6 -132 -210 -288 -453
l-282 -442 -33 222 -33 223 80 83 c44 46 80 87 80 91 0 5 -23 46 -50 92 -28
46 -49 85 -48 86 2 2 102 55 222 118 l219 115 69 -61 c37 -34 66 -67 64 -74z
m-1261 16 c132 -61 242 -112 244 -114 1 -2 -20 -42 -49 -90 l-52 -86 82 -89
82 -90 -27 -193 c-15 -105 -31 -197 -34 -203 -3 -7 -147 182 -318 419 l-313
431 68 62 c37 35 69 63 72 64 4 0 114 -50 245 -111z m-10 -764 c262 -363 485
-668 494 -678 16 -17 40 18 451 660 238 373 438 684 445 691 9 10 24 7 76 -16
36 -16 157 -64 270 -107 369 -139 512 -219 643 -356 127 -132 192 -296 203
-505 l6 -110 -44 -38 c-99 -85 -355 -183 -635 -245 -760 -166 -2065 -171
-2856 -10 -319 64 -576 160 -688 256 l-43 37 6 110 c7 137 26 215 82 331 107
224 294 354 765 531 113 42 232 89 265 104 44 20 63 24 71 16 6 -6 226 -308
489 -671z"/>
<path d="M2385 5436 c-82 -49 -105 -154 -53 -233 90 -136 302 -72 302 91 0
130 -138 209 -249 142z"/>
</g>
</svg>
