<?xml version="1.0" standalone="no"?>
<!DOCTYPE svg PUBLIC "-//W3C//DTD SVG 20010904//EN"
 "http://www.w3.org/TR/2001/REC-SVG-20010904/DTD/svg10.dtd">
<svg version="1.0" xmlns="http://www.w3.org/2000/svg"
 width="800px" height="800px"  viewBox="0 0 657.000000 720.000000"
 preserveAspectRatio="xMidYMid meet">

<g transform="translate(0.000000,720.000000) scale(0.100000,-0.100000)"
fill="#000000" stroke="none">
<path d="M3065 6259 c-55 -11 -143 -33 -195 -49 -52 -17 -102 -30 -112 -30 -9
0 -40 -9 -70 -19 -29 -11 -76 -26 -104 -35 -69 -21 -313 -124 -344 -146 -14
-9 -70 -40 -125 -69 -84 -43 -290 -180 -360 -239 -11 -9 -40 -33 -65 -52 -58
-46 -335 -322 -380 -380 -19 -25 -41 -51 -48 -59 -22 -23 -126 -181 -189 -287
-130 -217 -222 -431 -273 -634 -12 -46 -26 -92 -31 -102 -12 -23 -29 -105 -40
-198 -5 -41 -14 -115 -21 -165 -22 -168 -9 -560 26 -735 33 -167 73 -321 104
-403 11 -29 35 -90 53 -137 69 -181 209 -437 321 -590 51 -70 60 -79 115 -136
29 -30 53 -58 53 -64 0 -5 5 -10 10 -10 6 0 10 -5 10 -10 0 -13 147 -160 160
-160 5 0 10 -4 10 -10 0 -5 5 -10 11 -10 6 0 28 -18 49 -40 21 -22 43 -40 49
-40 6 0 11 -4 11 -10 0 -5 9 -10 20 -10 11 0 20 -4 20 -10 0 -5 7 -10 15 -10
8 0 15 -4 15 -10 0 -5 5 -10 10 -10 6 0 20 -9 32 -20 12 -11 28 -20 35 -20 7
0 13 -4 13 -10 0 -5 9 -10 20 -10 11 0 20 -4 20 -10 0 -5 6 -10 13 -10 7 0 22
-8 33 -18 10 -10 39 -24 64 -32 25 -8 47 -17 50 -20 10 -12 187 -88 220 -95
19 -4 51 -15 70 -25 39 -19 224 -67 315 -81 33 -5 87 -14 120 -20 153 -26 235
-31 595 -35 342 -4 390 -3 435 12 27 9 91 21 140 26 165 16 259 26 322 36 62
10 134 32 143 43 3 3 29 12 58 19 29 7 70 21 92 31 21 10 44 19 50 19 6 0 26
11 43 24 18 13 52 34 77 46 78 39 320 207 420 290 89 75 255 197 312 231 29
17 64 41 78 53 27 24 120 81 188 115 62 31 268 240 292 296 32 75 35 110 11
134 -19 19 -33 21 -133 21 -83 0 -133 -6 -188 -21 -41 -12 -104 -27 -140 -35
-36 -8 -78 -21 -95 -29 -16 -7 -52 -21 -80 -30 -27 -9 -72 -28 -100 -42 -27
-14 -97 -44 -155 -68 -58 -24 -157 -66 -220 -94 -194 -87 -369 -141 -456 -141
-26 0 -93 9 -149 20 -55 10 -161 31 -235 45 -74 14 -178 37 -230 51 -52 14
-121 32 -153 39 -32 7 -107 33 -165 56 -263 104 -306 148 -186 191 43 15 91
17 369 18 279 0 329 3 392 19 87 23 135 51 162 95 38 60 21 139 -39 189 -82
69 -142 82 -460 98 -96 4 -242 13 -325 20 -273 21 -582 12 -642 -19 -10 -5
-40 -15 -68 -21 -27 -7 -66 -23 -86 -36 -19 -12 -64 -37 -100 -55 -35 -18 -80
-45 -99 -60 -19 -15 -48 -34 -65 -43 -16 -9 -43 -28 -60 -42 -16 -15 -50 -38
-75 -51 -47 -24 -94 -54 -176 -114 -43 -30 -58 -35 -121 -38 -60 -4 -80 0
-126 21 -70 32 -159 123 -220 226 -46 77 -62 113 -136 306 -33 87 -72 238 -90
350 -7 39 -16 95 -21 126 -13 72 -13 426 0 498 53 311 65 358 139 556 46 124
112 277 131 305 9 14 37 62 62 107 41 73 143 216 191 268 10 11 28 36 40 55
31 51 42 63 153 174 103 103 163 155 177 156 5 0 14 6 21 13 7 6 28 23 46 37
18 14 42 33 53 43 11 9 23 17 27 17 4 0 16 8 27 18 69 59 202 141 323 198 183
87 289 133 320 139 19 4 61 16 93 26 77 25 345 79 388 79 19 0 79 9 133 21 85
18 120 20 265 15 348 -12 498 -36 831 -133 91 -27 343 -136 434 -188 86 -49
113 -42 50 12 -77 65 -194 137 -377 233 -155 81 -231 112 -437 181 -168 56
-250 79 -279 79 -14 0 -51 7 -81 16 -98 28 -209 36 -570 39 -321 3 -365 2
-455 -16z"/>
<path d="M3910 5813 c-38 -26 -260 -202 -305 -242 -22 -20 -58 -50 -80 -67
-22 -17 -65 -51 -95 -76 -30 -24 -75 -58 -100 -75 -25 -17 -66 -51 -90 -75
-25 -24 -83 -73 -130 -108 -47 -35 -96 -76 -110 -90 -14 -14 -72 -62 -129
-106 -57 -43 -129 -98 -160 -122 -31 -24 -81 -65 -111 -92 -68 -60 -134 -112
-270 -215 -58 -43 -107 -81 -110 -85 -3 -3 -25 -21 -50 -40 -25 -19 -52 -41
-60 -50 -8 -9 -35 -31 -60 -50 -25 -19 -47 -37 -50 -40 -3 -3 -21 -17 -40 -31
-19 -15 -53 -43 -74 -63 -22 -20 -44 -36 -48 -36 -14 0 -48 -39 -48 -55 0 -13
41 -15 310 -15 l310 0 0 -660 c0 -363 2 -660 5 -660 12 0 75 35 75 42 0 4 7 8
16 8 9 0 28 8 42 18 15 10 47 25 72 32 25 8 47 17 50 21 3 3 37 14 75 23 62
15 113 16 420 12 570 -9 764 -19 890 -45 61 -13 128 -32 150 -42 49 -23 157
-126 182 -171 21 -42 30 -201 14 -251 -16 -49 -105 -134 -170 -165 -71 -33
-184 -62 -243 -62 -27 0 -48 -4 -48 -10 0 -5 17 -10 39 -10 21 0 67 -9 101
-20 34 -11 72 -20 84 -20 11 0 86 -14 166 -30 207 -43 236 -41 305 23 11 10
31 21 45 24 14 3 104 44 201 90 97 45 181 83 186 83 15 0 63 25 63 33 0 4 9 7
20 7 11 0 20 3 20 8 0 4 36 18 80 32 44 14 80 27 80 31 0 3 23 12 50 19 28 7
50 17 50 21 0 4 18 10 40 14 l40 7 0 799 0 799 293 0 c162 0 297 3 300 6 11
11 -23 58 -57 82 -18 12 -41 30 -52 40 -10 9 -39 33 -64 52 -25 19 -47 37 -50
40 -3 3 -25 21 -50 40 -25 19 -47 37 -50 40 -3 3 -25 21 -50 40 -25 19 -47 37
-50 40 -3 3 -25 21 -50 40 -25 19 -52 41 -60 50 -8 9 -35 31 -60 49 -25 19
-52 42 -61 52 -9 10 -40 35 -70 56 -30 21 -110 83 -178 138 -222 180 -255 206
-372 295 -64 49 -170 133 -235 187 -65 54 -155 126 -199 160 -44 33 -89 69
-100 80 -11 10 -40 34 -65 53 -25 19 -47 37 -50 40 -18 20 -223 170 -233 170
-7 0 -24 -8 -37 -17z m60 -1947 c0 -222 -2 -255 -16 -260 -9 -3 -117 -6 -240
-6 -211 0 -225 1 -244 20 -19 19 -20 33 -20 244 0 123 3 231 6 240 5 14 38 16
260 16 l254 0 0 -254z m580 -6 l0 -260 -260 0 -260 0 0 260 0 260 260 0 260 0
0 -260z m-596 -306 c14 -5 16 -38 16 -260 l0 -254 -254 0 c-222 0 -255 2 -260
16 -3 9 -6 126 -6 260 l0 244 244 0 c134 0 251 -3 260 -6z m596 -254 l0 -260
-260 0 -260 0 0 260 0 260 260 0 260 0 0 -260z"/>
</g>
</svg>
