<?xml version="1.0" standalone="no"?>
<!DOCTYPE svg PUBLIC "-//W3C//DTD SVG 20010904//EN"
 "http://www.w3.org/TR/2001/REC-SVG-20010904/DTD/svg10.dtd">
<svg version="1.0" xmlns="http://www.w3.org/2000/svg"
 width="800px" height="800px"  viewBox="0 0 623.000000 621.000000"
 preserveAspectRatio="xMidYMid meet">

<g transform="translate(0.000000,621.000000) scale(0.100000,-0.100000)"
fill="#000000" stroke="none">
<path d="M2695 5998 c-33 -5 -98 -14 -145 -20 -380 -48 -816 -237 -1033 -447
-86 -83 -97 -103 -97 -187 l0 -68 181 -272 181 -272 -40 -84 c-82 -173 -129
-386 -119 -543 5 -77 28 -267 42 -350 6 -34 2 -46 -22 -80 -63 -88 -77 -131
-81 -253 -3 -94 0 -123 18 -180 34 -108 99 -227 159 -294 l56 -62 8 -360 c4
-199 6 -396 3 -438 -9 -132 -73 -283 -171 -402 -28 -35 -52 -50 -118 -76 -492
-194 -714 -445 -766 -870 -22 -171 -10 -219 75 -304 160 -160 477 -271 1014
-355 64 -10 168 -21 370 -41 507 -48 1324 -31 1815 39 520 74 867 195 1029
357 85 85 97 133 76 304 -28 226 -106 402 -239 544 -115 121 -265 217 -473
302 -152 63 -166 74 -245 204 -50 84 -81 160 -93 235 -6 38 -8 210 -3 460 l6
400 57 62 c58 63 121 178 157 283 14 42 18 85 18 180 0 120 -1 128 -30 185
-17 33 -37 70 -45 82 -13 20 -11 40 20 185 72 338 44 637 -82 851 -22 38 -37
74 -35 81 3 7 78 122 166 255 153 230 161 244 161 291 0 69 -10 89 -86 170
-208 220 -651 416 -1059 469 -44 6 -116 15 -160 21 -94 12 -384 11 -470 -2z
m600 -199 c152 -28 337 -75 431 -109 117 -44 304 -136 384 -191 82 -56 160
-132 160 -157 0 -11 -95 -163 -210 -336 l-210 -316 -911 0 -910 0 -203 308
c-111 169 -208 318 -215 331 -12 22 -9 27 40 73 224 210 705 393 1084 412 123
6 498 -4 560 -15z m323 -1329 c5 -41 53 -181 82 -241 15 -31 51 -92 80 -134
71 -105 141 -256 190 -405 22 -68 40 -129 40 -136 0 -27 24 -26 48 1 l25 29
23 -29 c71 -89 48 -277 -53 -432 -43 -65 -88 -105 -162 -142 -69 -35 -71 -38
-101 -121 -59 -164 -159 -350 -226 -420 -23 -24 -38 -53 -46 -90 -12 -54 -17
-314 -8 -394 6 -45 33 -25 -215 -155 -66 -35 -166 -88 -222 -117 -82 -44 -106
-52 -125 -45 -13 5 -85 39 -162 75 -76 36 -140 66 -142 66 -2 0 -69 31 -148
69 l-144 69 15 51 c11 38 13 86 10 193 -5 179 -17 232 -61 278 -67 70 -168
258 -226 420 -29 81 -39 92 -105 124 -102 48 -171 132 -219 264 -49 138 -44
243 15 315 17 21 34 37 38 37 4 0 20 -20 35 -44 15 -24 38 -54 52 -67 21 -20
24 -20 30 -5 4 10 4 70 0 134 l-7 117 86 83 c85 83 135 149 192 252 l31 55
188 6 c176 6 197 9 314 42 217 61 370 123 620 249 139 69 160 77 205 75 45 -2
50 -4 53 -27z m-1218 -2711 c30 -13 99 -45 153 -71 54 -26 99 -48 102 -48 5 0
219 -101 223 -105 5 -5 -26 -69 -59 -125 -14 -25 -44 -79 -66 -120 -97 -181
-147 -270 -153 -270 -4 0 -33 34 -66 76 -32 42 -86 111 -119 153 -71 89 -250
320 -288 372 l-27 35 63 46 c34 26 75 60 91 77 32 34 17 36 146 -20z m1221 25
c13 -14 51 -47 84 -72 33 -25 62 -47 64 -49 8 -6 -422 -628 -434 -628 -10 0
-12 4 -168 295 -28 52 -61 112 -74 132 -40 65 -36 78 32 113 169 87 288 149
365 190 46 25 89 45 95 45 7 0 22 -12 36 -26z m-1515 -355 c65 -84 173 -220
239 -304 66 -83 165 -209 220 -280 55 -71 143 -183 196 -249 52 -67 121 -154
153 -193 31 -40 63 -73 71 -73 18 0 67 67 425 576 41 59 95 136 120 171 25 34
99 140 165 234 156 222 192 269 210 269 16 0 345 -117 440 -157 259 -108 424
-232 505 -380 57 -105 91 -225 97 -348 l6 -111 -49 -43 c-60 -53 -171 -106
-334 -160 -126 -41 -360 -96 -480 -111 -306 -40 -371 -47 -610 -62 -342 -21
-1066 -14 -1265 12 -38 5 -124 14 -190 21 -108 10 -224 28 -400 60 -274 51
-553 154 -649 240 l-49 43 6 111 c6 125 42 254 99 353 86 151 256 275 525 384
91 37 403 147 419 147 5 1 64 -67 130 -150z m911 -81 c22 -40 58 -104 78 -143
21 -38 45 -83 55 -100 44 -76 100 -184 100 -193 0 -6 -19 -39 -43 -74 -208
-306 -214 -313 -235 -295 -8 6 -48 55 -88 107 -41 52 -98 126 -129 164 -30 38
-57 77 -60 87 -4 11 7 42 26 76 17 32 50 92 72 133 23 41 54 98 69 125 15 28
44 80 64 118 20 37 40 67 43 67 4 0 25 -33 48 -72z"/>
<path d="M2840 5480 l0 -130 -130 0 -130 0 0 -100 0 -100 130 0 130 0 0 -130
0 -130 100 0 100 0 0 130 0 130 130 0 130 0 0 100 0 100 -130 0 -130 0 0 130
0 130 -100 0 -100 0 0 -130z"/>
<path d="M2940 990 c-11 -11 -20 -24 -20 -29 0 -18 42 -61 60 -61 18 0 60 43
60 61 0 17 -40 49 -60 49 -11 0 -29 -9 -40 -20z"/>
</g>
</svg>
